#!OML:ASF I:\Actors\actors\Patient Classification 1\Patient 1\Session 1\Subject1.ASF
:FULLY-SPECIFIED
:DEGREES
198
root -0.549601 17.5563 7.61577 6.98498 -11.2079 -6.33563
lowerback 3.62738 3.28326 7.0792
upperback -7.25873 5.14287 1.60824
thorax -9.29832 2.0631 -2.80447
lowerneck -13.8059 1.37844 2.82283
upperneck 32.5914 1.27096 -0.184921
head 13.2643 0.884031 -0.371876
rclavicle -6.23687e-015 7.05686e-015
rhumerus 2.26362 51.3855 -83.9227
rradius 82.3336
rwrist 15.4542
rhand -6.88125 -40.1174
rfingers 7.12502
rthumb 18.985 -69.2109
lclavicle -6.23687e-015 7.05686e-015
lhumerus -45.0507 -20.2869 106.865
lradius 100.479
lwrist -9.82483
lhand -57.0648 -39.377
lfingers 7.12502
lthumb -29.3533 -11.6746
rfemur -7.94727 22.4288 21.9478
rtibia 8.21033
rfoot -9.3477 -15.2625
rtoes -4.54735
lfemur 8.20329 -38.7609 -17.8332
ltibia -3.28873
lfoot -31.281 54.7898
ltoes 21.7315
199
root -0.544492 17.5594 7.61719 6.95174 -12.0464 -6.1376
lowerback 3.60932 3.49964 7.3028
upperback -7.16869 5.42141 1.33844
thorax -9.11614 2.18128 -3.2342
lowerneck -13.9353 1.60555 3.06917
upperneck 32.5362 1.49857 -0.0890328
head 13.2765 1.02682 -0.341368
rclavicle -7.8023e-015 2.18663e-015
rhumerus 3.16629 51.7737 -83.9736
rradius 81.8751
rwrist 14.7297
rhand -6.15315 -40.5447
rfingers 7.12502
rthumb 19.6851 -69.568
lclavicle -7.8023e-015 2.18663e-015
lhumerus -46.5325 -20.0417 106.603
lradius 101.128
lwrist -12.7954
lhand -58.4665 -45.8051
lfingers 7.12502
lthumb -30.6907 -18.3452
rfemur -8.14153 22.6978 21.6767
rtibia 8.40181
rfoot -9.25335 -14.7447
rtoes -4.74213
lfemur 8.47533 -38.4642 -18.3216
ltibia -3.28113
lfoot -32.3268 54.9468
ltoes 22.4402
200
root -0.542502 17.562 7.6181 6.90245 -12.7677 -6.02959
lowerback 3.698 3.70547 7.52595
upperback -7.09848 5.70113 1.10413
thorax -9.01882 2.2982 -3.63374
lowerneck -14.0741 1.80793 3.25664
upperneck 32.4806 1.66728 0.121143
head 13.2882 1.152 -0.264323
rclavicle -2.54382e-014 1.76918e-014
rhumerus 4.84574 52.9972 -82.7907
rradius 82.1162
rwrist 12.3401
rhand -5.03322 -41.6076
rfingers 7.12502
rthumb 20.7615 -70.517
lclavicle -2.54382e-014 1.76918e-014
lhumerus -47.8363 -20.0657 106.571
lradius 101.721
lwrist -14.2497
lhand -59.0434 -49.4845
lfingers 7.12502
lthumb -31.2407 -22.1291
rfemur -8.24343 22.9311 21.5482
rtibia 8.51721
rfoot -9.15585 -14.3166
rtoes -4.95796
lfemur 8.67524 -38.0153 -18.6001
ltibia -3.26847
lfoot -33.1171 54.8861
ltoes 23.0629
201
root -0.544276 17.5631 7.61808 6.8607 -13.3418 -6.02241
lowerback 3.83341 3.88264 7.67009
upperback -7.0502 5.94934 0.954013
thorax -8.98894 2.40548 -3.90267
lowerneck -14.133 1.95423 3.28129
upperneck 32.3775 1.74096 0.516304
head 13.2562 1.24007 -0.101992
rclavicle -2.36274e-014 -2.1593e-014
rhumerus 4.29762 52.6777 -84.0084
rradius 82.4579
rwrist 10.7603
rhand -3.20295 -41.6272
rfingers 7.12502
rthumb 22.5192 -70.334
lclavicle -2.36274e-014 -2.1593e-014
lhumerus -48.9375 -20.2893 106.859
lradius 102.342
lwrist -13.5951
lhand -58.6702 -49.7181
lfingers 7.12502
lthumb -30.885 -22.2948
rfemur -8.28198 23.0876 21.5627
rtibia 8.5954
rfoot -9.11769 -13.9268
rtoes -5.14546
lfemur 8.75415 -37.4339 -18.6391
ltibia -3.23201
lfoot -33.2762 54.7682
ltoes 23.2035
202
root -0.548151 17.5632 7.61617 6.7902 -13.6939 -5.94346
lowerback 3.92742 3.98909 7.65967
upperback -6.99919 6.08699 0.820329
thorax -8.95735 2.4708 -4.05637
lowerneck -14.1399 2.04824 3.25261
upperneck 32.25 1.75168 0.922416
head 13.2004 1.295 0.0628564
rclavicle 2.48255e-014 1.72869e-016
rhumerus 4.62546 53.1454 -84.0848
rradius 82.9838
rwrist 8.18695
rhand -2.61155 -42.0128
rfingers 7.12502
rthumb 23.0867 -70.6497
lclavicle 2.48255e-014 1.72869e-016
lhumerus -49.6716 -20.6486 107.328
lradius 102.81
lwrist -11.2736
lhand -58.2055 -48.7747
lfingers 7.12502
lthumb -30.4418 -21.2683
rfemur -8.28383 23.1358 21.5138
rtibia 8.66925
rfoot -9.10429 -13.6477
rtoes -5.5187
lfemur 8.66022 -36.6481 -18.5999
ltibia -3.14516
lfoot -32.4269 54.5313
ltoes 22.5688
203
root -0.555004 17.5638 7.61126 6.70656 -13.7706 -5.79953
lowerback 3.92919 3.9778 7.48993
upperback -6.92486 6.04589 0.728682
thorax -8.88457 2.46443 -4.05343
lowerneck -14.1091 2.15067 3.34417
upperneck 32.1129 1.81904 1.09834
head 13.1371 1.35809 0.124412
rclavicle -7.64389e-015 -1.26477e-014
rhumerus 4.79736 53.5582 -84.2731
rradius 83.4843
rwrist 6.52817
rhand -2.48304 -42.1889
rfingers 7.12502
rthumb 23.21 -70.8103
lclavicle -7.64389e-015 -1.26477e-014
lhumerus -49.8899 -20.8968 107.818
lradius 103.066
lwrist -8.39615
lhand -58.3245 -48.5908
lfingers 7.12502
lthumb -30.5554 -21.1056
rfemur -8.25486 23.1141 21.3993
rtibia 8.69017
rfoot -9.08678 -13.5695
rtoes -5.87255
lfemur 8.35978 -35.7439 -18.4529
ltibia -2.96797
lfoot -31.1526 53.9858
ltoes 21.737
204
root -0.565723 17.5646 7.60451 6.63729 -13.581 -5.75877
lowerback 3.86605 3.83842 7.27522
upperback -6.83522 5.83047 0.743885
thorax -8.7923 2.3812 -3.89107
lowerneck -14.0555 2.2983 3.57582
upperneck 32.0213 1.97423 1.09006
head 13.0938 1.45222 0.103252
rclavicle -3.26659e-014 -3.85145e-015
rhumerus 5.04599 54.1254 -84.2396
rradius 83.9924
rwrist 6.09726
rhand -2.27471 -42.5491
rfingers 7.12502
rthumb 23.4099 -71.1452
lclavicle -3.26659e-014 -3.85145e-015
lhumerus -49.5986 -20.857 108.175
lradius 103.155
lwrist -6.07089
lhand -58.8718 -50.3196
lfingers 7.12502
lthumb -31.0772 -22.9328
rfemur -8.16992 23.0295 21.4134
rtibia 8.65373
rfoot -9.12822 -13.6584
rtoes -5.93027
lfemur 7.98502 -34.9548 -18.1041
ltibia -2.78197
lfoot -29.7072 53.3538
ltoes 20.6449
205
root -0.576928 17.5651 7.59555 6.56071 -13.1697 -5.83526
lowerback 3.91466 3.59171 7.16077
upperback -6.79445 5.49514 0.784139
thorax -8.82726 2.22561 -3.75783
lowerneck -13.9783 2.47458 3.94113
upperneck 32.0298 2.15691 1.0102
head 13.0926 1.56585 0.0360775
rclavicle -2.32081e-014 -1.36664e-014
rhumerus 4.92621 54.5465 -84.5242
rradius 84.4084
rwrist 6.35963
rhand -1.38293 -42.7883
rfingers 7.12502
rthumb 24.2651 -71.2728
lclavicle -2.32081e-014 -1.36664e-014
lhumerus -48.8872 -20.5596 108.185
lradius 103.047
lwrist -4.81671
lhand -59.4103 -51.8328
lfingers 7.12502
lthumb -31.5903 -24.5455
rfemur -8.04538 22.8188 21.5716
rtibia 8.64367
rfoot -9.26613 -13.8172
rtoes -5.49778
lfemur 7.63743 -34.3649 -17.6355
ltibia -2.62023
lfoot -28.128 52.7634
ltoes 19.2639
206
root -0.586726 17.5644 7.5848 6.50863 -12.6424 -5.9592
lowerback 4.04025 3.3008 7.19311
upperback -6.8125 5.11823 0.758336
thorax -8.95964 2.03112 -3.77826
lowerneck -13.8453 2.59025 4.27433
upperneck 31.9887 2.24589 0.982359
head 13.0565 1.64039 -0.0210099
rclavicle -8.33653e-015 4.72114e-014
rhumerus 5.15049 55.0738 -84.4968
rradius 84.7871
rwrist 6.35296
rhand 0.336583 -43.2156
rfingers 7.12502
rthumb 25.9127 -71.4697
lclavicle -8.33653e-015 4.72114e-014
lhumerus -47.8179 -20.1427 107.82
lradius 102.797
lwrist -3.61462
lhand -59.7495 -51.0744
lfingers 7.12502
lthumb -31.9134 -23.8511
rfemur -7.95037 22.5898 21.7755
rtibia 8.67585
rfoot -9.41617 -14.0602
rtoes -4.82121
lfemur 7.33335 -34.1289 -17.1853
ltibia -2.48335
lfoot -27.1155 52.2804
ltoes 18.5661
207
root -0.597187 17.5612 7.5751 6.44902 -12.1125 -6.07103
lowerback 4.05934 3.04099 7.27222
upperback -6.80037 4.76989 0.665339
thorax -8.98418 1.85071 -3.88795
lowerneck -13.6865 2.64828 4.42995
upperneck 31.9323 2.24242 1.13898
head 13.0012 1.6769 0.00950695
rclavicle -1.02374e-014 -6.95746e-015
rhumerus 6.70773 56.4031 -83.0811
rradius 85.1346
rwrist 4.18355
rhand -0.0849328 -44.7403
rfingers 7.12502
rthumb 25.509 -73.0527
lclavicle -1.02374e-014 -6.95746e-015
lhumerus -46.3482 -19.796 107.2
lradius 102.486
lwrist -0.254119
lhand -59.9288 -50.1416
lfingers 7.12502
lthumb -32.0841 -22.9526
rfemur -7.84953 22.364 21.9789
rtibia 8.72457
rfoot -9.53431 -14.3204
rtoes -4.57887
lfemur 7.1432 -34.1693 -16.8571
ltibia -2.39023
lfoot -26.6608 51.9526
ltoes 18.4674
